<svg id="Layer_1" data-name="Layer 1" xmlns="http://www.w3.org/2000/svg" xmlns:xlink="http://www.w3.org/1999/xlink" viewBox="0 0 648 648"><defs><style>.cls-1,.cls-10,.cls-11,.cls-4,.cls-6,.cls-8{fill:none;}.cls-12,.cls-2,.cls-9{fill:#1e1e1d;}.cls-3{fill:#fff;}.cls-4,.cls-6,.cls-8,.cls-9{stroke:#f36d21;}.cls-10,.cls-11,.cls-4,.cls-6,.cls-8,.cls-9{stroke-miterlimit:10;}.cls-4{stroke-width:3px;}.cls-5{fill:#f36d21;}.cls-6{stroke-width:2px;}.cls-7{clip-path:url(#clip-path);}.cls-11,.cls-9{stroke-width:2.52px;}.cls-10,.cls-11{stroke:#1e1e1d;}.cls-10{stroke-width:2.36px;}.cls-12{font-size:121px;font-family:LowGunScreen, Low Gun Screen;}</style><clipPath id="clip-path"><path class="cls-1" d="M262.21,86.89H387A101.19,101.19,0,0,1,488.23,188.08v139a26.63,26.63,0,0,1-26.63,26.63H187.65A26.63,26.63,0,0,1,161,327.06v-139A101.19,101.19,0,0,1,262.21,86.89Z"/></clipPath></defs><title>2</title><path class="cls-2" d="M188.75,250.1H460.51a0,0,0,0,1,0,0V439.7a66.95,66.95,0,0,1-66.95,66.95H255.69a66.95,66.95,0,0,1-66.95-66.95V250.1A0,0,0,0,1,188.75,250.1Z"/><path class="cls-3" d="M259.36,333H389.9a0,0,0,0,1,0,0v91.07a32.16,32.16,0,0,1-32.16,32.16H291.52a32.16,32.16,0,0,1-32.16-32.16V333A0,0,0,0,1,259.36,333Z"/><path class="cls-4" d="M214.08,274h221.1a0,0,0,0,1,0,0V428.27a54.47,54.47,0,0,1-54.47,54.47H268.54a54.47,54.47,0,0,1-54.47-54.47V274A0,0,0,0,1,214.08,274Z"/><path class="cls-5" d="M227.12,353.69H188.75l59.84,76.59V375.17A21.48,21.48,0,0,0,227.12,353.69Z"/><path class="cls-5" d="M422.14,353.69h38.37l-59.85,76.59V375.17A21.48,21.48,0,0,1,422.14,353.69Z"/><path class="cls-2" d="M262.21,86.89H387A101.19,101.19,0,0,1,488.23,188.08v139a26.63,26.63,0,0,1-26.63,26.63H187.65A26.63,26.63,0,0,1,161,327.06v-139A101.19,101.19,0,0,1,262.21,86.89Z"/><path class="cls-3" d="M270.37,104.33H378.88a88,88,0,0,1,88,88V313.1a23.15,23.15,0,0,1-23.15,23.15H205.56a23.15,23.15,0,0,1-23.15-23.15V192.29A88,88,0,0,1,270.37,104.33Z"/><path class="cls-6" d="M182.41,306.23V218.4A114.07,114.07,0,0,1,296.48,104.33h56.29A114.08,114.08,0,0,1,466.85,218.4v87.83"/><path class="cls-5" d="M368.86,312.62h42.07A31.06,31.06,0,0,0,421,291H358.84A31.1,31.1,0,0,0,368.86,312.62Z"/><path class="cls-5" d="M236.77,312.62h42.07a31.06,31.06,0,0,0,10-21.61H226.75A31.1,31.1,0,0,0,236.77,312.62Z"/><path class="cls-5" d="M300.56,383.06l-.12-103h45.9l2.39,103.32a14.23,14.23,0,0,1-14.14,15.81H314.67A14.23,14.23,0,0,1,300.56,383.06Z"/><path class="cls-2" d="M300.56,374.2,309,309.74a16.37,16.37,0,0,1,16.23-14.25h0A16.38,16.38,0,0,1,341.5,310l7.23,64.42a14.24,14.24,0,0,1-14.14,15.82H314.67A14.24,14.24,0,0,1,300.56,374.2Z"/><path class="cls-3" d="M304.72,360.58l7-53.31a13.54,13.54,0,0,1,13.42-11.78h0a13.54,13.54,0,0,1,13.46,12l6,53.28a11.75,11.75,0,0,1-11.69,13.07H316.39A11.76,11.76,0,0,1,304.72,360.58Z"/><path class="cls-2" d="M445,278.55H204.3A35.56,35.56,0,0,1,239.86,243H409.39A35.57,35.57,0,0,1,445,278.55Z"/><path class="cls-5" d="M445,278.55H204.3A12.45,12.45,0,0,0,216.75,291H432.5A12.46,12.46,0,0,0,445,278.55Z"/><path class="cls-5" d="M276.26,416.92H373a16.57,16.57,0,0,1-16.58,16.57H292.84a16.58,16.58,0,0,1-16.58-16.57Z"/><path class="cls-5" d="M193.7,265.49c0,35-5.06,63.3-11.29,63.3s-11.29-28.34-11.29-63.3,5-63.31,11.29-63.31S193.7,230.53,193.7,265.49Z"/><path class="cls-5" d="M478.13,265.49c0,35-5.05,63.3-11.28,63.3s-11.3-28.34-11.3-63.3,5.06-63.31,11.3-63.31S478.13,230.53,478.13,265.49Z"/><ellipse class="cls-2" cx="466.85" cy="265.49" rx="4.57" ry="25.6"/><path class="cls-2" d="M187,265.49c0,14.13-2,25.6-4.56,25.6s-4.57-11.47-4.57-25.6,2-25.6,4.57-25.6S187,251.35,187,265.49Z"/><g class="cls-7"><path class="cls-8" d="M338.85,284.78V190.39a81.35,81.35,0,0,1,33.22-65.59l46.22-33.92"/><path class="cls-8" d="M310.41,284.78V190.39a81.34,81.34,0,0,0-33.23-65.59L231,90.88"/></g><path class="cls-9" d="M354.29,205.49a29.67,29.67,0,1,1-29.66-29.66A29.66,29.66,0,0,1,354.29,205.49Z"/><path class="cls-3" d="M343.5,205.49a18.88,18.88,0,1,1-18.87-18.87A18.87,18.87,0,0,1,343.5,205.49Z"/><path class="cls-5" d="M335.2,205.49a10.58,10.58,0,1,1-10.57-10.57A10.57,10.57,0,0,1,335.2,205.49Z"/><line class="cls-4" x1="324.63" y1="390.28" x2="324.63" y2="295.49"/><line class="cls-4" x1="248.59" y1="416.92" x2="404.57" y2="416.92"/><circle class="cls-10" cx="324.63" cy="296.77" r="245.37" transform="translate(-114.77 316.47) rotate(-45)"/><circle class="cls-11" cx="324.63" cy="296.77" r="267.58" transform="translate(-114.77 316.47) rotate(-45)"/><line class="cls-4" x1="569.99" y1="296.77" x2="511.23" y2="296.77"/><line class="cls-4" x1="79.26" y1="296.77" x2="138.02" y2="296.77"/><line class="cls-4" x1="325.23" y1="542.14" x2="325.23" y2="483.37"/><line class="cls-4" x1="325.23" y1="51.4" x2="325.23" y2="110.16"/><path class="cls-3" d="M149.64,296.77A11.62,11.62,0,1,1,138,285.14,11.62,11.62,0,0,1,149.64,296.77Z"/><path class="cls-3" d="M522.86,296.77a11.63,11.63,0,1,1-11.63-11.63A11.63,11.63,0,0,1,522.86,296.77Z"/><rect class="cls-3" x="557.99" y="284.78" width="44.41" height="27.84"/><rect class="cls-3" x="45.61" y="284.78" width="44.41" height="27.84"/><rect class="cls-3" x="301.8" y="540.97" width="44.41" height="27.84" transform="translate(878.89 230.89) rotate(90)"/><rect class="cls-3" x="301.8" y="28.59" width="44.41" height="27.84" transform="translate(366.51 -281.49) rotate(90)"/><text class="cls-12" transform="translate(71.66 615.29)">Impetus 19.0</text></svg>