<svg id="background" xmlns="http://www.w3.org/2000/svg" viewBox="0 0 600 325.7"><defs><style>.cls-1,.cls-5,.cls-6{fill:none;}.cls-10,.cls-12,.cls-13,.cls-2,.cls-4,.cls-9{fill:#fff;}.cls-3{fill:#ee6f27;}.cls-4{font-size:64.12px;font-family:NightMachine, Night Machine;letter-spacing:0.1em;}.cls-5{stroke:#f7961d;}.cls-5,.cls-6{stroke-miterlimit:10;stroke-width:6px;}.cls-6{stroke:#f26e23;}.cls-7{fill:#ee4323;}.cls-8{font-size:28.32px;font-family:MyriadPro-Regular, Myriad Pro;}.cls-9{letter-spacing:-0.07em;}.cls-10,.cls-11{letter-spacing:0em;}.cls-11{fill:#f26d21;}.cls-12{letter-spacing:0em;}.cls-13{letter-spacing:-0.03em;}</style></defs><title>title</title><path class="cls-1" d="M206,194.7V0H400.7V194.7ZM276,27.5c-.1,0-.3,0-.3.1l-.7.2a30.2,30.2,0,0,0-20.5,28.7c-.1,10.9-.1,21.8-.1,32.7,0,3,0,6,.1,9a8,8,0,0,0,5.8,7.8,19,19,0,0,0,2.5.3v25.6A20.1,20.1,0,0,0,276.1,151a19.5,19.5,0,0,0,7.2,1.2h20v7.2c0,.3-.1.6.4.6s.5-.1.5-.5c0-2.5,0-4.9.1-7.3h19.6a19.9,19.9,0,0,0,4.9-.5,20.1,20.1,0,0,0,15.6-19.6V106.6c0-.3.1-.3.4-.3l1.4-.2a8,8,0,0,0,6.5-7.9V56.1a23.8,23.8,0,0,0-.5-5.3,30.4,30.4,0,0,0-14-20.2,28,28,0,0,0-6.6-3l-.4-.2a30.9,30.9,0,0,0-7.4-1.2H304.7c-.4.1-.5-.1-.5-.5s0-.3,0-.5V20c0-.5,0-.5-.5-.5s-.4.2-.4.5v5.3c0,.9.1.8-.8.8H283.3l-2.3.2A21.3,21.3,0,0,0,276,27.5ZM309.1,8.6H308c-.3,0-.4.1-.4.4s.2.4.5.5a85.5,85.5,0,0,1,8.7.9A76.2,76.2,0,0,1,331,14.1a79.9,79.9,0,0,1,48.8,51,80.7,80.7,0,0,1,3.5,17.6c0,.8.1,1.6.1,2.5s.2.4.5.4.3-.2.3-.5v-.6A84.4,84.4,0,0,0,383,74.4,77.2,77.2,0,0,0,375.8,53q-15.2-29.4-46.5-40.4A82.2,82.2,0,0,0,309.1,8.6ZM223.7,85.5a5.3,5.3,0,0,0,.1-1.3c.2-3,.6-6.1,1.1-9.1A77.8,77.8,0,0,1,232.3,53a79.5,79.5,0,0,1,36.8-35.9,75.9,75.9,0,0,1,29.6-7.7c.5-.1.5-.1.5-.5s-.2-.3-.5-.3a79.6,79.6,0,0,0-21.2,4.2,79.9,79.9,0,0,0-44.1,36.5,76.8,76.8,0,0,0-9,24.2,80.9,80.9,0,0,0-1.2,8.6c-.1,1-.1,2-.2,3.1s.1.4.4.4ZM307.6,169c-.1.7-.1.7.6.7h.2a68.7,68.7,0,0,0,7.8-.8,76.1,76.1,0,0,0,13.3-3.3A80.3,80.3,0,0,0,366,140.4,79.3,79.3,0,0,0,381.6,110a86.7,86.7,0,0,0,2.2-11.3c.1-1.5.2-2.9.4-4.4a.4.4,0,0,0-.2-.4.5.5,0,0,0-.6.5c-.2,2.1-.4,4.3-.7,6.4a81.5,81.5,0,0,1-3.3,13.8,80.5,80.5,0,0,1-19.9,31.7,81.5,81.5,0,0,1-22.3,15.4,76.8,76.8,0,0,1-18.3,5.9l-8.1,1.2Zm-8.4.7c.1-.8,0-.7-.6-.8h-.2a80.8,80.8,0,0,1-8.6-1,72.2,72.2,0,0,1-15.7-4.5,80,80,0,0,1-46.6-49.7,81,81,0,0,1-3.4-16.1c-.1-1.1-.2-2.2-.2-3.2s0-.5-.4-.5-.5,0-.5.5c.3,3.3.7,6.5,1.3,9.7a75.7,75.7,0,0,0,7.1,21.2A80.8,80.8,0,0,0,272,163.5a84.3,84.3,0,0,0,16.9,5.1,90.4,90.4,0,0,0,9.1,1.1Zm78.3-85.2a53.2,53.2,0,0,0-.6-5.6,66,66,0,0,0-3.3-13.8,72.1,72.1,0,0,0-22.2-32.4,71.5,71.5,0,0,0-29-15.1,67.4,67.4,0,0,0-11.9-2.1l-2.5-.2c-.3,0-.4,0-.4.3s0,.4.3.4l2.3.2a71.2,71.2,0,0,1,10.3,1.6,73.3,73.3,0,0,1,56.1,65.3c.1.6.1,1.3.2,1.9s0,.6.4.6.3-.4.3-.6ZM298.7,15.3l-4.1.4a74,74,0,0,0-9.6,1.8,72.4,72.4,0,0,0-33.8,19.4,73,73,0,0,0-21.4,46.3,13.4,13.4,0,0,0-.1,2c-.1.3.1.4.3.4s.4-.1.4-.4.1-1.6.2-2.4a62.6,62.6,0,0,1,2.1-12.1A72.5,72.5,0,0,1,252,37.1a73.3,73.3,0,0,1,33.1-18.9,80.5,80.5,0,0,1,9.8-1.8l3.9-.4c.4,0,.5-.2.4-.5S298.9,15.4,298.7,15.3Zm78,78.7c-.2,2.7-.5,5.4-.9,8a70.4,70.4,0,0,1-6.7,20c-9.2,17.9-23.4,30.2-42.4,36.7a70.8,70.8,0,0,1-18.2,3.6h-.7c-.1,0-.2.1-.2.3s0,.5.5.5a89.7,89.7,0,0,0,10.4-1.4,70.5,70.5,0,0,0,18.4-6.4,74.1,74.1,0,0,0,33.3-33.8,73,73,0,0,0,7.1-25.1,14.1,14.1,0,0,0,.1-2c.1-.3,0-.5-.3-.5ZM229.8,94c0,1.1.1,2.3.2,3.4a61.6,61.6,0,0,0,2.2,11.2A73.9,73.9,0,0,0,298.8,163h.4a.6.6,0,0,0,0-.6c-.1-.2-.4-.1-.6-.1a65.7,65.7,0,0,1-8.9-1.2,68.5,68.5,0,0,1-19.8-6.9,72.9,72.9,0,0,1-32-32.5,71.6,71.6,0,0,1-7.4-27.2C230.5,93.9,230.5,93.9,229.8,94Zm138.5-4.4h4.9c.3,0,.5,0,.5-.4s-.1-.5-.5-.5h-9.9a.2.2,0,0,0-.2.2c-.2.4,0,.7.5.7Zm-129.7,0h5.1c.3,0,.4-.1.4-.4s0-.5-.4-.5H233.5c-.2,0-.3.1-.3.4s0,.5.5.5Zm122.5,95.2a2.5,2.5,0,0,0,.1-1.2c0-1.3,0-1.3-1.3-1.1s-.4.1-.4.3v1.6c0,.4.1.4.4.4Z"/><path class="cls-2" d="M303.3,152.2h-20a19.5,19.5,0,0,1-7.2-1.2,20.1,20.1,0,0,1-13.3-19.1V106.3a19,19,0,0,1-2.5-.3,8,8,0,0,1-5.8-7.8c-.1-3-.1-6-.1-9,0-10.9,0-21.8.1-32.7A30.2,30.2,0,0,1,275,27.8l.7-.2.5.5,5.3,3.9h-.3a26.8,26.8,0,0,0-19.2,18,33.2,33.2,0,0,0-1.1,10.4.4.4,0,0,1-.1.3,1.9,1.9,0,0,0-1.1,1.2,12.9,12.9,0,0,0-.8,2.6,63.8,63.8,0,0,0-1.3,10.7c-.1,3.4-.1,6.8.1,10.2a55.8,55.8,0,0,0,.9,8.1,17,17,0,0,0,1,3.7,3.3,3.3,0,0,0,.6,1c.4.6.9.6,1.4.1a2.1,2.1,0,0,0,.4-.6,7.2,7.2,0,0,0,6.4,3.2h27.9a46.9,46.9,0,0,1,0,5.3H284.6c-.6,0-.6,0-.6.6v17.9h-2.4c-.9,0-.8.1-.8-.8V112.6a6.4,6.4,0,0,0-6.3-6.3c-3.7.1-7.3,0-11,0h-.6l.5.6,6.2,7.9a1.7,1.7,0,0,1,.4,1.2v12.4c0,1,.1,2,.2,3a16.7,16.7,0,0,0,16.1,13.9h16.4c.7,0,.7,0,.7.7v5.5A1.3,1.3,0,0,1,303.3,152.2Z"/><path class="cls-2" d="M331.6,27.6a28,28,0,0,1,6.6,3,30.4,30.4,0,0,1,14,20.2,23.8,23.8,0,0,1,.5,5.3V98.2a8,8,0,0,1-6.5,7.9l-1.4.2c-.3,0-.4,0-.4.3v25.5a20.1,20.1,0,0,1-15.6,19.6,19.9,19.9,0,0,1-4.9.5H304.3c-.1-2.1-.1-4.2-.1-6.3,0-.4.1-.5.5-.5h15.4a13.4,13.4,0,0,0,3.5-.3,16.8,16.8,0,0,0,13.6-16.7V116.2a2.2,2.2,0,0,1,.5-1.4l6-7.6a7,7,0,0,0,.6-.9H331.5a6.6,6.6,0,0,0-5.1,6.4c.1,2.8,0,5.6,0,8.5v3.1c0,.3,0,.4-.4.4h-2.8V106.5c-.1-.1-.1-.2-.3-.2H311.2c-.6,0-.6,0-.6-.6v-1.9a26.2,26.2,0,0,1-.1-2.8h28.8a7.3,7.3,0,0,0,2.5-.4,8.2,8.2,0,0,0,3.4-2.7l.4.5c.5.5.9.5,1.3,0a1.8,1.8,0,0,0,.6-.9,10.7,10.7,0,0,0,.8-2.7,53.8,53.8,0,0,0,1.3-11.4,80.5,80.5,0,0,0-.7-15.5,20.1,20.1,0,0,0-1.2-5.4,3.4,3.4,0,0,0-1.3-1.8c-.1,0-.1-.1-.1-.2a40.9,40.9,0,0,0-.5-7.8c-2.1-9.4-7.6-16-16.6-19.6a35.8,35.8,0,0,0-3.5-1.1l2.7-2A38.1,38.1,0,0,0,331.6,27.6Z"/><path class="cls-3" d="M331.6,27.6a38.1,38.1,0,0,1-3.2,2.4l-2.7,2a16.7,16.7,0,0,0-1.6,1.2l.7.3a34.1,34.1,0,0,1,19.2,19,45.5,45.5,0,0,1,2.3,8c0,.1,0,.2.1.2a3.4,3.4,0,0,1,1.3,1.8,20.1,20.1,0,0,1,1.2,5.4,80.5,80.5,0,0,1,.7,15.5,53.8,53.8,0,0,1-1.3,11.4,10.7,10.7,0,0,1-.8,2.7,1.8,1.8,0,0,1-.6.9c-.4.5-.8.5-1.3,0l-.4-.5a26.4,26.4,0,0,1-1.2-4,69.7,69.7,0,0,1-1.1-11.2,99.2,99.2,0,0,1,.3-10.9,53.6,53.6,0,0,1,1-7,8.2,8.2,0,0,1,1.2-3.3,1.7,1.7,0,0,0,.2-1.2,31.8,31.8,0,0,0-3.3-10,34,34,0,0,0-18.2-16.4,1.2,1.2,0,0,0-1.3.2l-5.1,3.7a25,25,0,0,0-6.8,8,24.2,24.2,0,0,0-2.6,7.4c0,.4,0,.6.4.8l.3.2A9.2,9.2,0,0,1,311.2,67a8.1,8.1,0,0,1-2.8,2.7.6.6,0,0,0-.4.6c.1.9,0,1.8.1,2.7a2.2,2.2,0,0,0-.1.8v8.9c0,1.2-.1,1,1,1h30.7a2.8,2.8,0,0,1-.1.9,3.6,3.6,0,0,1-3.6,2.8h-2.9c-.6,0-.5,0-.6.5a9.6,9.6,0,0,1-2.5,5.5,1.5,1.5,0,0,1-1.1.4H317.5a1.2,1.2,0,0,1-1.1-.5,9.1,9.1,0,0,1-2.5-5.4c0-.5,0-.5-.5-.5h-2.6c-.6,0-.6,0-.6.6.1,2.5.1,5,.2,7.5s.1,3.6.1,5.4a26.2,26.2,0,0,0,.1,2.8v1.9c0,.6,0,.6.6.6h.1c-.7,0-.7,0-.6.6s.1,2.6,0,3.9a5.5,5.5,0,0,1-.2-1.8c-.3-2.3-.5-4.7-.8-7s-.7-5.8-1-8.7a5.1,5.1,0,0,0-3.4-4.3l-1.2-.2a2.2,2.2,0,0,0,0,.8v22c0,.2-.1.5,0,.7s-.1.1-.1.2v4.4a.4.4,0,0,0,.4.4h1.9a4.3,4.3,0,0,0,4.5-3.4c0,.6.1,1.2.1,1.7a4.4,4.4,0,0,1-4.2,4.3h-6.2a4.2,4.2,0,0,1-4-3.2,8.2,8.2,0,0,1-.1-2.7.3.3,0,0,1,.1.2,4.3,4.3,0,0,0,3.5,3,13.1,13.1,0,0,0,2.8.1c.3,0,.3-.2.3-.4s.1-3.1,0-4.6V89.5c0-.2.1-.4,0-.6a1.6,1.6,0,0,0-1,.2c-.2.1-.6.1-.7.4h0c-.4.1-.8.2-.9.7h0c-.1-.1-.2,0-.1.2h0c-.2-.1-.3.1-.4.2a6.5,6.5,0,0,0-1.1,2.2,14.9,14.9,0,0,0-.2,2.1c-.4,2.3-.7,4.7-1,7.1l-.9,7.3c-.2.9-.2,1.8-.4,2.7s-.1-.5-.1-.7v-4.9a46.9,46.9,0,0,0,0-5.3V88.1c0-.6,0-.6-.5-.6h-2.4c-.4,0-.5.2-.6.6a9.2,9.2,0,0,1-2.4,5.4,1.5,1.5,0,0,1-1.2.5H278.5c-1.4,0-1.4,0-2.3-1.1a8.4,8.4,0,0,1-1.9-4.8c-.1-.5-.1-.5-.7-.5h-2.5a3.6,3.6,0,0,1-3.6-3.7h31.2c.4.1.5-.1.5-.5V73a17.7,17.7,0,0,1,0-2.3c.1-.6-.2-.8-.6-1.1a9.3,9.3,0,0,1-.1-15.6.6.6,0,0,0,.3-.8,23.8,23.8,0,0,0-9.3-15.3l-5.1-3.8a1.1,1.1,0,0,0-1.3-.2,33.6,33.6,0,0,0-21.5,26.7.8.8,0,0,0,.2.8,6.9,6.9,0,0,1,.7,1.5,23.3,23.3,0,0,1,1,4.4,87.6,87.6,0,0,1,.8,10.1,100.2,100.2,0,0,1-.6,13.5,26.8,26.8,0,0,1-1.7,6.9,2.1,2.1,0,0,1-.4.6c-.5.5-1,.5-1.4-.1a3.3,3.3,0,0,1-.6-1,17,17,0,0,1-1-3.7,55.8,55.8,0,0,1-.9-8.1c-.2-3.4-.2-6.8-.1-10.2a63.8,63.8,0,0,1,1.3-10.7,12.9,12.9,0,0,1,.8-2.6,1.9,1.9,0,0,1,1.1-1.2.4.4,0,0,0,.1-.3l.3-1a34.2,34.2,0,0,1,18.5-24.8,34.9,34.9,0,0,1,3.4-1.5l-1.4-1.1h.4l.5.4a1.4,1.4,0,0,0,2,.3h.6a42.1,42.1,0,0,1,4.8-1.2l6-.3h6.9c.4,0,.5-.1.5-.4v-4c0-.5-.1-.5-.6-.5h-.3c.9,0,.8.1.8-.8V20c0-.3,0-.5.4-.5s.5,0,.5.5v5.1c0,.2.1.3,0,.5s.1.6.5.5h0c-.4-.1-.5.1-.5.5v3.7c0,.7,0,.7.7.7h3.5a86.3,86.3,0,0,1,8.8.3h.3a25.6,25.6,0,0,1,4.6,1.1c.5.1,1.1.6,1.6.4a7.1,7.1,0,0,0,1.4-1l.3-.2,5.5-4,.3-.4ZM307.7,73a28,28,0,0,0,0-2.9,9.4,9.4,0,0,1-8.2,0v2.4c0,.4.2.5.5.5h.2c-.7,0-.7,0-.7.7v9.4c0,.6,0,.6.6.6h7.2c.4,0,.5-.1.4-.4V73.7C307.7,73.5,307.8,73.2,307.7,73Zm.3-19.5a.7.7,0,0,1,.1-.5v-.2a24.3,24.3,0,0,1,9.7-15.4l4.8-3.5c.1-.1.3-.2.3-.4a33.3,33.3,0,0,0-9.9-1.8h-8c-.9,0-.8-.1-.8.7v.5c0,.1,0,.2-.2.3s-.7-.1-.7-.6v-.3c0-.6,0-.6-.6-.6h-8a29.4,29.4,0,0,0-8.4,1.2,6.6,6.6,0,0,0-2,.6.8.8,0,0,0,.5.5l4.9,3.6a24.3,24.3,0,0,1,9.4,15.3.7.7,0,0,0,.2.6A9.5,9.5,0,0,1,308,53.5Zm-4.4,16.8a8.4,8.4,0,0,0,8.5-8.5,8.5,8.5,0,1,0-8.5,8.5Zm-44.1,9.5c0,1.1,0,2.1.1,3.2a28.9,28.9,0,0,0,.4,2.9,3.5,3.5,0,0,0,.5,1.3c.3.4.6.4.8,0a5,5,0,0,0,.5-1.3,36.4,36.4,0,0,0,.5-8.1,27,27,0,0,0-.5-4.1,2.9,2.9,0,0,0-.5-1.3c-.2-.4-.5-.4-.8,0a3.4,3.4,0,0,0-.5,1.4A40.5,40.5,0,0,0,259.5,79.8Zm88.1,0a22.6,22.6,0,0,0,0-2.6,26,26,0,0,0-.5-3.9,4.2,4.2,0,0,0-.4-1c-.3-.3-.5-.3-.8,0a5.6,5.6,0,0,0-.4,1.2,22.3,22.3,0,0,0-.5,3.6,33.8,33.8,0,0,0,.4,8.4,4.2,4.2,0,0,0,.4,1.6c.1.1.2.4.5.4a.4.4,0,0,0,.4-.4,4.4,4.4,0,0,0,.5-1.5A22.7,22.7,0,0,0,347.6,79.8Z"/><path class="cls-3" d="M323.2,124.8H326c.4,0,.4-.1.4-.4v-3.1c0-2.9.1-5.7,0-8.5a6.6,6.6,0,0,1,5.1-6.4h12.8a7,7,0,0,1-.6.9l-6,7.6a2.2,2.2,0,0,0-.5,1.4v12.2a16.8,16.8,0,0,1-13.6,16.7,13.4,13.4,0,0,1-3.5.3H304.7c-.4,0-.5.1-.5.5,0,2.1,0,4.2.1,6.3s-.1,4.8-.1,7.3c0,.4,0,.5-.5.5s-.4-.3-.4-.6v-7.2a1.3,1.3,0,0,0,.1-.6v-5.5c0-.7,0-.7-.7-.7H286.3a16.7,16.7,0,0,1-16.1-13.9c-.1-1-.2-2-.2-3V116.1a1.7,1.7,0,0,0-.4-1.2l-6.2-7.9-.5-.6h.6c3.7,0,7.3.1,11,0a6.4,6.4,0,0,1,6.3,6.3V124c0,.9-.1.8.8.8h41.6Zm0,.9h-4.5c-.5,0-.5,0-.7.5a4.9,4.9,0,0,1-5,4H294.2a3.9,3.9,0,0,1-1.5-.2,4.8,4.8,0,0,1-3.5-3.9c-.1-.3-.2-.4-.5-.4H284a28.1,28.1,0,0,0-2.9,0c-.2,0-.3,0-.3.3v3.1l-.6-.6-8.8-11.3c-.2-.1-.2-.4-.6-.4v11.6c0,.7.1,1.3.1,1.9a15.4,15.4,0,0,0,4.5,9.5,15.9,15.9,0,0,0,11.6,4.8h33.2a15.4,15.4,0,0,0,5.6-1,16,16,0,0,0,10.6-15.1V117.3a.7.7,0,0,0-.2-.6l-4.8,6.2c-1.6,2-3.2,4.1-4.9,6.1a27.2,27.2,0,0,1-.1-2.8c.1-.4,0-.6-.4-.5Z"/><path class="cls-2" d="M282.1,32h-.3a1.2,1.2,0,0,0-.6-.6l-2.8-2.1a21.5,21.5,0,0,1-2.4-1.8,21.3,21.3,0,0,1,5-1.1l2.3-.2h19.5c.5,0,.6,0,.6.5v4c0,.3-.1.4-.5.4H296l-6,.3a37.5,37.5,0,0,0-5.8.2A7.1,7.1,0,0,0,282.1,32Z"/><path class="cls-2" d="M331.2,27.4l-.3.4-5.5,4-.3.2h-.2a33.3,33.3,0,0,0-7.7-.5,86.3,86.3,0,0,0-8.8-.3h-3.5c-.7,0-.7,0-.7-.7V26.7c0-.4.1-.6.5-.5h19.1A30.9,30.9,0,0,1,331.2,27.4Z"/><path class="cls-2" d="M309.1,8.6a82.2,82.2,0,0,1,20.2,4Q360.7,23.5,375.8,53A77.2,77.2,0,0,1,383,74.4a84.4,84.4,0,0,1,1.2,10.1v.6c0,.3.1.5-.3.5s-.5-.1-.5-.4-.1-1.7-.1-2.5a80.7,80.7,0,0,0-3.5-17.6,79.9,79.9,0,0,0-48.8-51,76.2,76.2,0,0,0-14.2-3.8,85.5,85.5,0,0,0-8.7-.9c-.3-.1-.5-.1-.5-.5s.1-.4.4-.4Z"/><path class="cls-2" d="M223.7,85.5h-.3c-.3,0-.5-.1-.4-.4s.1-2.1.2-3.1a80.9,80.9,0,0,1,1.2-8.6,76.8,76.8,0,0,1,9-24.2,79.9,79.9,0,0,1,44.1-36.5,79.6,79.6,0,0,1,21.2-4.2c.3,0,.5-.1.5.3s0,.4-.5.5a75.9,75.9,0,0,0-29.6,7.7A79.5,79.5,0,0,0,232.3,53a77.8,77.8,0,0,0-7.4,22.1c-.5,3-.9,6.1-1.1,9.1A5.3,5.3,0,0,1,223.7,85.5Z"/><path class="cls-2" d="M307.6,169l3.2-.2,8.1-1.2a76.8,76.8,0,0,0,18.3-5.9,81.5,81.5,0,0,0,22.3-15.4,80.5,80.5,0,0,0,19.9-31.7,81.5,81.5,0,0,0,3.3-13.8c.3-2.1.5-4.3.7-6.4a.5.5,0,0,1,.6-.5.4.4,0,0,1,.2.4c-.2,1.5-.3,2.9-.4,4.4a86.7,86.7,0,0,1-2.2,11.3A79.3,79.3,0,0,1,366,140.4a80.3,80.3,0,0,1-36.5,25.2,76.1,76.1,0,0,1-13.3,3.3,68.7,68.7,0,0,1-7.8.8h-.2C307.5,169.7,307.5,169.7,307.6,169Z"/><path class="cls-2" d="M299.2,169.7H298a90.4,90.4,0,0,1-9.1-1.1,84.3,84.3,0,0,1-16.9-5.1,80.8,80.8,0,0,1-40.6-38.2,75.7,75.7,0,0,1-7.1-21.2c-.6-3.2-1-6.4-1.3-9.7,0-.5.1-.5.5-.5s.3.2.4.5.1,2.1.2,3.2a81,81,0,0,0,3.4,16.1,80,80,0,0,0,46.6,49.7,72.2,72.2,0,0,0,15.7,4.5,80.8,80.8,0,0,0,8.6,1h.2C299.2,169,299.3,168.9,299.2,169.7Z"/><path class="cls-2" d="M377.5,84.5V85c0,.2.2.6-.3.6s-.4,0-.4-.6-.1-1.3-.2-1.9a73.3,73.3,0,0,0-56.1-65.3,71.2,71.2,0,0,0-10.3-1.6l-2.3-.2c-.3,0-.3-.1-.3-.4s.1-.3.4-.3l2.5.2a67.4,67.4,0,0,1,11.9,2.1,71.5,71.5,0,0,1,29,15.1,72.1,72.1,0,0,1,22.2,32.4,66,66,0,0,1,3.3,13.8A53.2,53.2,0,0,1,377.5,84.5Z"/><path class="cls-2" d="M298.7,15.3c.2.1.5-.2.5.2s0,.5-.4.5l-3.9.4a80.5,80.5,0,0,0-9.8,1.8A73.3,73.3,0,0,0,252,37.1a72.5,72.5,0,0,0-19.3,33.6,62.6,62.6,0,0,0-2.1,12.1c-.1.8-.1,1.6-.2,2.4s-.1.4-.4.4-.4-.1-.3-.4a13.4,13.4,0,0,1,.1-2,73,73,0,0,1,21.4-46.3A72.4,72.4,0,0,1,285,17.5a74,74,0,0,1,9.6-1.8Z"/><path class="cls-2" d="M376.7,94h.4c.3,0,.4.2.3.5a14.1,14.1,0,0,1-.1,2,73,73,0,0,1-7.1,25.1,74.1,74.1,0,0,1-33.3,33.8,70.5,70.5,0,0,1-18.4,6.4,89.7,89.7,0,0,1-10.4,1.4c-.5,0-.6-.1-.5-.5s.1-.3.2-.3h.7a70.8,70.8,0,0,0,18.2-3.6c19-6.5,33.2-18.8,42.4-36.7a70.4,70.4,0,0,0,6.7-20C376.2,99.4,376.5,96.7,376.7,94Z"/><path class="cls-2" d="M229.8,94c.7-.1.7-.1.7.5a71.6,71.6,0,0,0,7.4,27.2,72.9,72.9,0,0,0,32,32.5,68.5,68.5,0,0,0,19.8,6.9,65.7,65.7,0,0,0,8.9,1.2c.2,0,.5-.1.6.1a.6.6,0,0,1,0,.6h-.4a73.9,73.9,0,0,1-66.6-54.4A61.6,61.6,0,0,1,230,97.4C229.9,96.3,229.8,95.1,229.8,94Z"/><path class="cls-3" d="M368.3,89.6h-4.7c-.5,0-.7-.3-.5-.7a.2.2,0,0,1,.2-.2h9.9c.4,0,.4.1.5.5s-.2.4-.5.4Z"/><path class="cls-3" d="M238.6,89.6h-4.9c-.5,0-.5-.1-.5-.5s.1-.4.3-.4h10.2c.4,0,.4.2.4.5s-.1.4-.4.4Z"/><path class="cls-3" d="M276,27.5a21.5,21.5,0,0,0,2.4,1.8l2.8,2.1a1.2,1.2,0,0,1,.6.6h-.3l-5.3-3.9-.5-.5C275.7,27.5,275.9,27.5,276,27.5Z"/><path class="cls-1" d="M262,97.8a26.8,26.8,0,0,0,1.7-6.9,100.2,100.2,0,0,0,.6-13.5,87.6,87.6,0,0,0-.8-10.1,23.3,23.3,0,0,0-1-4.4,6.9,6.9,0,0,0-.7-1.5.8.8,0,0,1-.2-.8,33.6,33.6,0,0,1,21.5-26.7,1.1,1.1,0,0,1,1.3.2l5.1,3.8a23.8,23.8,0,0,1,9.3,15.3.6.6,0,0,1-.3.8,9.3,9.3,0,0,0,.1,15.6c.4.3.7.5.6,1.1a17.7,17.7,0,0,0,0,2.3H276.7a10.4,10.4,0,0,0-8.5,6.8,8.3,8.3,0,0,0-.7,3.8,3.6,3.6,0,0,0,3.6,3.7h2.5c.6,0,.6,0,.7.5a8.4,8.4,0,0,0,1.9,4.8c.9,1.1.9,1.1,2.3,1.1h10.7a1.5,1.5,0,0,0,1.2-.5,9.2,9.2,0,0,0,2.4-5.4c.1-.4.2-.6.6-.6h2.4c.5,0,.5,0,.5.6V101H268.4A7.2,7.2,0,0,1,262,97.8Z"/><path class="cls-1" d="M323.2,124.8H284V106.9c0-.6,0-.6.6-.6h11.7v4.9c0,.2.1.5.1.7a7.4,7.4,0,0,0,0,2.1,8.2,8.2,0,0,0,.1,2.7,4.2,4.2,0,0,0,4,3.2h6.2a4.4,4.4,0,0,0,4.2-4.3c0-.5-.1-1.1-.1-1.7a3.4,3.4,0,0,0,.1-1c-.1-.7-.1-1.4-.2-2.1s0-2.6,0-3.9-.1-.6.6-.6h11.6c.2,0,.2.1.3.2v18.3Z"/><path class="cls-1" d="M281.5,32h.2l1.4,1.1a34.9,34.9,0,0,0-3.4,1.5,34.2,34.2,0,0,0-18.5,24.8l-.3,1A33.2,33.2,0,0,1,262,50.1a26.8,26.8,0,0,1,19.2-18Z"/><path class="cls-1" d="M310.5,101c0-1.8-.1-3.6-.1-5.4s-.1-5-.2-7.5c0-.6,0-.6.6-.6h2.6c.5,0,.5,0,.5.5a9.1,9.1,0,0,0,2.5,5.4,1.2,1.2,0,0,0,1.1.5h11.4a1.5,1.5,0,0,0,1.1-.4,9.6,9.6,0,0,0,2.5-5.5c.1-.5,0-.5.6-.5H336a3.6,3.6,0,0,0,3.6-2.8,2.8,2.8,0,0,0,.1-.9,5.8,5.8,0,0,0-.2-2.3A10.7,10.7,0,0,0,329.4,73H308.1c-.1-.9,0-1.8-.1-2.7a.6.6,0,0,1,.4-.6,8.1,8.1,0,0,0,2.8-2.7A9.2,9.2,0,0,0,309,54.2l-.3-.2c-.4-.2-.4-.4-.4-.8a24.2,24.2,0,0,1,2.6-7.4,25,25,0,0,1,6.8-8l5.1-3.7a1.2,1.2,0,0,1,1.3-.2,34,34,0,0,1,18.2,16.4,31.8,31.8,0,0,1,3.3,10,1.7,1.7,0,0,1-.2,1.2,8.2,8.2,0,0,0-1.2,3.3,53.6,53.6,0,0,0-1,7,99.2,99.2,0,0,0-.3,10.9A69.7,69.7,0,0,0,344,93.9a26.4,26.4,0,0,0,1.2,4,8.2,8.2,0,0,1-3.4,2.7,7.3,7.3,0,0,1-2.5.4Z"/><path class="cls-1" d="M346.3,60.5a45.5,45.5,0,0,0-2.3-8,34.1,34.1,0,0,0-19.2-19l-.7-.3a16.7,16.7,0,0,1,1.6-1.2,35.8,35.8,0,0,1,3.5,1.1c9,3.6,14.5,10.2,16.6,19.6A40.9,40.9,0,0,1,346.3,60.5Z"/><path class="cls-1" d="M308,53.5a9.5,9.5,0,0,0-8.7,0,.7.7,0,0,1-.2-.6,24.3,24.3,0,0,0-9.4-15.3L284.8,34a.8.8,0,0,1-.5-.5,6.6,6.6,0,0,1,2-.6,29.4,29.4,0,0,1,8.4-1.2h8c.6,0,.6,0,.6.6v.3c0,.5.2.6.7.6s.2-.2.2-.3v-.5c0-.8-.1-.7.8-.7h8a33.3,33.3,0,0,1,9.9,1.8c0,.2-.2.3-.3.4l-4.8,3.5a24.3,24.3,0,0,0-9.7,15.4V53A.7.7,0,0,0,308,53.5Z"/><path class="cls-2" d="M267.5,83.7a8.3,8.3,0,0,1,.7-3.8,10.4,10.4,0,0,1,8.5-6.8h22.5V83.2c0,.4-.1.6-.5.5H267.5Z"/><path class="cls-2" d="M308.1,73h21.3a10.7,10.7,0,0,1,10.1,8.4,5.8,5.8,0,0,1,.2,2.3H309c-1.1,0-1,.2-1-1V73.8A2.2,2.2,0,0,1,308.1,73Z"/><path class="cls-2" d="M303.6,70.3a8.6,8.6,0,1,1,8.5-8.5A8.5,8.5,0,0,1,303.6,70.3Zm0-2.9a5.7,5.7,0,1,0-5.7-5.7A5.7,5.7,0,0,0,303.6,67.4Z"/><path class="cls-1" d="M304.1,112.3c-.1-.2,0-.5,0-.7v-22a2.2,2.2,0,0,1,0-.8l1.2.2.2.2a4.1,4.1,0,0,1,2.3,3.2c.2,2.1.4,4.2.7,6.3s.7,6.4,1.1,9.6a3.6,3.6,0,0,1-3.6,4Z"/><path class="cls-1" d="M302.1,89.1a1.6,1.6,0,0,1,1-.2c.1.2,0,.4,0,.6v22.8h-2.9a3.6,3.6,0,0,1-2.6-3.5c0-1,.3-2.1.4-3.1l.9-7.2c.3-2,.6-4,.8-6a17.2,17.2,0,0,1,.7-2.1h0c.1,0,.1-.1.1-.2h0c.4-.1.6-.5.9-.7h0Z"/><path class="cls-2" d="M307.7,73c.1.2,0,.5,0,.7v9.6c.1.3,0,.4-.4.4h-7.2c-.6,0-.6,0-.6-.6V73.7c0-.7,0-.7.7-.7h7.5Z"/><path class="cls-2" d="M304.1,112.3H306a3.6,3.6,0,0,0,3.6-4c-.4-3.2-.8-6.4-1.1-9.6s-.5-4.2-.7-6.3a4.1,4.1,0,0,0-2.3-3.2l-.2-.2a5.1,5.1,0,0,1,3.4,4.3c.3,2.9.7,5.8,1,8.7s.5,4.7.8,7a5.5,5.5,0,0,0,.2,1.8c.1.7.1,1.4.2,2.1a3.4,3.4,0,0,1-.1,1,4.3,4.3,0,0,1-4.5,3.4h-1.9a.4.4,0,0,1-.4-.4v-4.4C304,112.4,304.1,112.4,304.1,112.3Z"/><path class="cls-2" d="M300.4,90.3a17.2,17.2,0,0,0-.7,2.1c-.2,2-.5,4-.8,6l-.9,7.2c-.1,1-.4,2.1-.4,3.1a3.6,3.6,0,0,0,2.6,3.5h2.9c.1,1.5,0,3.1,0,4.6s0,.4-.3.4a13.1,13.1,0,0,1-2.8-.1,4.3,4.3,0,0,1-3.5-3,.3.3,0,0,0-.1-.2,7.4,7.4,0,0,1,0-2.1c.2-.9.2-1.8.4-2.7l.9-7.3c.3-2.4.6-4.8,1-7.1a14.9,14.9,0,0,1,.2-2.1,6.5,6.5,0,0,1,1.1-2.2C300.1,90.4,300.2,90.2,300.4,90.3Z"/><path class="cls-2" d="M259.5,79.8a40.5,40.5,0,0,1,.5-6,3.4,3.4,0,0,1,.5-1.4c.3-.4.6-.4.8,0a2.9,2.9,0,0,1,.5,1.3,27,27,0,0,1,.5,4.1,36.4,36.4,0,0,1-.5,8.1,5,5,0,0,1-.5,1.3c-.2.4-.5.4-.8,0a3.5,3.5,0,0,1-.5-1.3,28.9,28.9,0,0,1-.4-2.9C259.5,81.9,259.5,80.9,259.5,79.8Z"/><path class="cls-2" d="M347.6,79.8a22.7,22.7,0,0,1-.4,5.8,4.4,4.4,0,0,1-.5,1.5.4.4,0,0,1-.4.4c-.3,0-.4-.3-.5-.4a4.2,4.2,0,0,1-.4-1.6,33.8,33.8,0,0,1-.4-8.4,22.3,22.3,0,0,1,.5-3.6,5.6,5.6,0,0,1,.4-1.2c.3-.3.5-.3.8,0a4.2,4.2,0,0,1,.4,1,26,26,0,0,1,.5,3.9A22.6,22.6,0,0,1,347.6,79.8Z"/><path class="cls-1" d="M307.7,73H300c-.3,0-.5-.1-.5-.5V70.1a9.4,9.4,0,0,0,8.2,0A28,28,0,0,1,307.7,73Z"/><path class="cls-1" d="M317.2,31.4a33.3,33.3,0,0,1,7.7.5h.2a7.1,7.1,0,0,1-1.4,1c-.5.2-1.1-.3-1.6-.4a25.6,25.6,0,0,0-4.6-1.1Z"/><path class="cls-1" d="M282.1,32a7.1,7.1,0,0,1,2.1-.4,37.5,37.5,0,0,1,5.8-.2,42.1,42.1,0,0,0-4.8,1.2h-.6a1.4,1.4,0,0,1-2-.3Z"/><path class="cls-2" d="M301.4,89.5c-.3.2-.5.6-.9.7S301,89.6,301.4,89.5Z"/><path class="cls-2" d="M302.1,89.1l-.7.4C301.5,89.2,301.9,89.2,302.1,89.1Z"/><path class="cls-2" d="M300.5,90.2c0,.1,0,.2-.1.2S300.4,90.1,300.5,90.2Z"/><path class="cls-2" d="M323.2,125.7H326c.4-.1.5.1.4.5a27.2,27.2,0,0,0,.1,2.8c1.7-2,3.3-4.1,4.9-6.1l4.8-6.2a.7.7,0,0,1,.2.6v11.2a16,16,0,0,1-10.6,15.1,15.4,15.4,0,0,1-5.6,1H287a15.9,15.9,0,0,1-11.6-4.8,15.4,15.4,0,0,1-4.5-9.5c0-.6-.1-1.2-.1-1.9V116.8c.4,0,.4.3.6.4l8.8,11.3.6.6V126c0-.3.1-.3.3-.3a28.1,28.1,0,0,1,2.9,0v1.7a9.7,9.7,0,0,0,9.6,9.6H315a9.6,9.6,0,0,0,8-7.7C323.2,128,323.1,126.9,323.2,125.7Z"/><path class="cls-1" d="M323.2,125.7c-.1,1.2,0,2.3-.2,3.5a9.6,9.6,0,0,1-8,7.7H293.6a9.7,9.7,0,0,1-9.6-9.6v-1.7h4.7c.3,0,.4.1.5.4a4.8,4.8,0,0,0,3.5,3.9,3.9,3.9,0,0,0,1.5.2H313a4.9,4.9,0,0,0,5-4c.2-.5.2-.5.7-.5Z"/><path class="cls-1" d="M370.5,182.5h-4.8c-.5,0-.5-.1-.5-.6v-7.8c0-.5,0-.5.5-.5h9.5c.5,0,.5,0,.5.5V182c0,.4,0,.5-.5.5Z"/><path class="cls-1" d="M256.1,173.6h4.5c.7,0,.6-.1.6.7a5.4,5.4,0,0,1,0,1.8c0,.6,0,.6-.5.6h-9.4c-.7,0-.6,0-.6-.7v-1.9c0-.4.1-.5.5-.5Z"/><path class="cls-1" d="M350.3,176.7h-4.7c-.6,0-.6,0-.6-.6v-1.9c0-.7,0-.6.7-.6H355c.6,0,.6,0,.6.6v1.9c0,.6,0,.6-.6.6Z"/><path class="cls-3" d="M298.7,73h0Z"/><path class="cls-3" d="M329.4,73h0Z"/><path class="cls-1" d="M303.6,67.4a5.7,5.7,0,1,1,5.7-5.6A5.7,5.7,0,0,1,303.6,67.4Zm0-8.8a3.2,3.2,0,0,0-3.2,3.2,3.3,3.3,0,0,0,3.3,3.2,3.3,3.3,0,0,0,3.1-3.2A3.2,3.2,0,0,0,303.6,58.6Z"/><path class="cls-3" d="M303.6,58.6a3.2,3.2,0,0,1,3.2,3.2,3.3,3.3,0,0,1-3.1,3.2,3.3,3.3,0,0,1-3.3-3.2A3.2,3.2,0,0,1,303.6,58.6Z"/><g id="_Group_" data-name="&lt;Group&gt;"><g id="_Group_2" data-name="&lt;Group&gt;"><text class="cls-4" transform="translate(57.7 267.3)">IMPETUS 19.0</text><polyline id="_Path_" data-name="&lt;Path&gt;" class="cls-5" points="39.6 244.5 39.6 203.8 554.3 203.8 554.3 244.5"/><polyline id="_Path_2" data-name="&lt;Path&gt;" class="cls-6" points="17.2 235.9 17.2 284 578.2 284 578.2 235.9"/><circle id="_Ellipse_" data-name="&lt;Ellipse&gt;" class="cls-7" cx="39.6" cy="244.5" r="11.2"/><circle id="_Ellipse_2" data-name="&lt;Ellipse&gt;" class="cls-7" cx="578.2" cy="235.9" r="11.2"/></g><text class="cls-8" transform="translate(96.4 312.5) scale(0.99 1)"><tspan class="cls-9">T</tspan><tspan class="cls-10" x="12.1" y="0">echfusion</tspan><tspan x="127.6" y="0"> </tspan><tspan class="cls-11" x="133.6" y="0">-</tspan><tspan x="142.3" y="0"> </tspan><tspan class="cls-12" x="148.3" y="0">R</tspan><tspan class="cls-10" x="163.7" y="0">edefining </tspan><tspan class="cls-13" x="282.8" y="0">P</tspan><tspan class="cls-2" x="297.1" y="0">ossibilities</tspan></text></g></svg>